<svg xmlns="http://www.w3.org/2000/svg" viewBox="0 0 200 200">
  <!-- Abstract left figures: flowing, intersecting organic curves -->
  <!-- Left figure: tall curved strokes -->
  <path d="M 24 30 C 35 20, 40 40, 30 60 C 18 85, 22 120, 28 155"
        fill="none" stroke="#222" stroke-width="3.5" stroke-linecap="round"/>
  <path d="M 18 30 C 28 50, 38 80, 22 110 C 10 130, 16 150, 24 160"
        fill="none" stroke="#222" stroke-width="3.5" stroke-linecap="round"/>

  <!-- Center figure: diamond intersection -->
  <path d="M 52 30 C 58 50, 48 65, 58 80 C 70 95, 62 110, 56 130 C 50 148, 60 160, 62 170"
        fill="none" stroke="#222" stroke-width="3.5" stroke-linecap="round"/>
  <path d="M 62 30 C 58 50, 68 65, 58 80 C 46 95, 54 110, 58 130 C 64 148, 56 160, 54 170"
        fill="none" stroke="#222" stroke-width="3.5" stroke-linecap="round"/>

  <!-- Right figure: upright with branching top -->
  <path d="M 88 30 C 92 55, 90 85, 90 120 C 90 145, 92 160, 90 175"
        fill="none" stroke="#222" stroke-width="3.5" stroke-linecap="round"/>
  <path d="M 78 55 C 82 48, 90 42, 90 30 C 92 20, 98 18, 102 28"
        fill="none" stroke="#222" stroke-width="3.5" stroke-linecap="round"/>

  <!-- "youmoo" text in rounded sans-serif -->
  <text x="118" y="110" font-family="'Helvetica Neue', Arial, sans-serif"
        font-size="28" font-weight="400" fill="#222" letter-spacing="1"
        text-anchor="start">youmoo</text>
</svg>
